<svg width="24" height="26" viewBox="0 0 24 26" fill="none" xmlns="http://www.w3.org/2000/svg">
<path d="M6.81143 21.372C6.02823 19.9674 5.61403 18.2458 5.61403 16.3817C5.61403 13.249 8.326 10.6989 11.6529 10.6989C14.9862 10.6989 17.6917 13.2491 17.6917 16.3817C17.6917 16.7377 17.983 17.029 18.339 17.029C18.695 17.029 18.9863 16.7377 18.9863 16.3817C18.9863 12.5306 15.6982 9.40436 11.653 9.40436C7.60767 9.40436 4.31949 12.5371 4.31949 16.3817C4.31949 18.4658 4.792 20.414 5.68521 22.0062C6.559 23.5661 7.16744 24.2846 8.28716 25.4172C8.41659 25.5466 8.57842 25.6114 8.74669 25.6114C8.90852 25.6114 9.07679 25.5531 9.19329 25.4172C9.45221 25.1713 9.45221 24.757 9.19979 24.5046C8.203 23.5014 7.64638 22.8607 6.81143 21.372Z" fill="#567DF4"/>
<path d="M4.45544 3.1197C6.67554 1.90933 9.09624 1.29447 11.6658 1.29447C14.2419 1.29447 16.3972 1.84465 18.8762 3.12619C18.9733 3.17152 19.0704 3.19736 19.174 3.19736C19.407 3.19736 19.6335 3.06794 19.75 2.84785C19.9119 2.53068 19.7889 2.13591 19.4717 1.97407C16.8309 0.608429 14.4231 0 11.6658 0C8.88264 0 6.24835 0.666681 3.83408 1.98057C3.51691 2.15532 3.4069 2.54367 3.57516 2.86084C3.74992 3.17795 4.13827 3.28802 4.45544 3.1197Z" fill="#567DF4"/>
<path d="M11.6069 6.25214C7.43217 6.25214 3.61341 8.58875 1.88525 12.2004C1.29623 13.4237 0.998535 14.8347 0.998535 16.3882C0.998535 18.1357 1.30922 19.8057 1.9435 21.5079C2.07293 21.8445 2.44187 22.0128 2.77846 21.8898C3.11505 21.7604 3.28331 21.3914 3.16031 21.0548C2.39005 18.9901 2.29945 17.3979 2.29945 16.3882C2.29945 15.0289 2.55188 13.8056 3.05673 12.7571C4.5713 9.58548 7.93054 7.5402 11.6134 7.5402C16.7849 7.5402 20.9921 11.5079 20.9921 16.3882C20.9921 17.7797 19.7817 18.906 18.2995 18.906C16.8173 18.906 15.607 17.7732 15.607 16.3882C15.607 14.2846 13.8205 12.5758 11.6199 12.5758C9.4192 12.5758 7.63278 14.2846 7.63278 16.3882C7.63278 18.9448 8.62957 21.3462 10.4354 23.1455C11.8335 24.5371 13.1798 25.3009 15.2445 25.864C15.2962 25.8834 15.3545 25.8899 15.4127 25.8899C15.6975 25.8899 15.9564 25.7022 16.0341 25.4174C16.1312 25.0744 15.9241 24.7183 15.581 24.6213C13.7557 24.1229 12.5648 23.4497 11.3415 22.2329C9.78158 20.6795 8.92077 18.6018 8.92077 16.3947C8.92077 15.0031 10.1312 13.8768 11.6133 13.8768C13.0955 13.8768 14.3059 15.0096 14.3059 16.3947C14.3059 18.4983 16.0988 20.207 18.293 20.207C20.4871 20.207 22.28 18.4983 22.28 16.3947C22.2801 10.8024 17.4905 6.25214 11.6069 6.25214Z" fill="#567DF4"/>
<path d="M23.1868 8.93178C21.8988 7.13248 20.2677 5.72146 18.3324 4.72475C14.2548 2.6277 9.05086 2.63419 4.97966 4.73768C3.03791 5.74087 1.40034 7.16482 0.118785 8.9771C-0.0883156 9.26836 -0.0171382 9.66963 0.274125 9.87678C0.39063 9.95445 0.52006 9.99329 0.649551 9.99329C0.850219 9.99329 1.05083 9.90269 1.18032 9.72794C2.33888 8.08398 3.8211 6.79595 5.57518 5.88984C9.28393 3.97404 14.0283 3.96754 17.7435 5.87692C19.4911 6.7701 20.9668 8.05163 22.1318 9.68267C22.3389 9.97393 22.7467 10.0387 23.038 9.83152C23.3292 9.6243 23.394 9.22303 23.1868 8.93178Z" fill="#567DF4"/>
<path d="M19.3743 21.7993C18.8565 21.8899 18.3323 21.9223 18.0216 21.9223C16.7271 21.9223 15.6526 21.6181 14.74 20.9968C13.1672 19.9288 12.2287 18.2071 12.2287 16.3883C12.2287 16.0323 11.9374 15.741 11.5814 15.741C11.2254 15.741 10.9341 16.0323 10.9341 16.3883C10.9341 18.6407 12.0862 20.7637 14.0086 22.0712C15.1283 22.8284 16.4811 23.2168 18.0215 23.2168C18.2028 23.2168 18.8435 23.2103 19.6008 23.0744C19.9503 23.0096 20.1898 22.6731 20.1251 22.3236C20.0604 21.9741 19.7238 21.7346 19.3743 21.7993Z" fill="#567DF4"/>
</svg>
