<svg width="45" height="45" viewBox="0 0 45 45" fill="none" xmlns="http://www.w3.org/2000/svg">
<circle cx="22.0648" cy="22.0648" r="22.0648" fill="white"/>
<mask id="mask0_0_584" style="mask-type:alpha" maskUnits="userSpaceOnUse" x="0" y="1" width="44" height="44">
<path d="M43.0043 23.0392C43.0048 25.8231 42.4569 28.5799 41.392 31.152C40.3271 33.7242 38.766 36.0614 36.7979 38.0301C34.8298 39.9988 32.4932 41.5605 29.9215 42.6259C27.3499 43.6914 24.5936 44.2398 21.8101 44.2398C16.1881 44.2398 10.7963 42.0062 6.82099 38.0303C2.84564 34.0544 0.61232 28.6619 0.61232 23.0392C0.61232 17.4165 2.84564 12.024 6.82099 8.04812C10.7963 4.07224 16.1881 1.83862 21.8101 1.83862C24.5936 1.83862 27.3499 2.38702 29.9215 3.45249C32.4932 4.51796 34.8298 6.07964 36.7979 8.04834C38.766 10.017 40.3271 12.3542 41.392 14.9264C42.4569 17.4985 43.0048 20.2553 43.0043 23.0392Z" fill="#F1F3F6"/>
</mask>
<g mask="url(#mask0_0_584)">
<path d="M39.0546 46.996H5.42474C5.48594 46.4006 5.78917 44.3304 7.3025 41.6843C9.09957 38.5373 17.1113 38.9853 17.3811 38.5373C17.498 38.3426 17.5648 37.5496 17.6037 36.7176C17.651 35.638 17.651 34.4916 17.651 34.4916L22.2411 35.8439L26.8311 34.4916C26.8311 34.4916 26.8311 35.6297 26.8756 36.7176C26.9173 37.5523 26.9813 38.3565 27.1009 38.554C27.3791 39.002 35.3798 38.554 37.1796 41.701C38.6902 44.3304 38.9962 46.4006 39.0546 46.996Z" fill="#E1A387"/>
<path d="M39.0546 46.9956H5.42474C5.48594 46.4001 5.78917 44.33 7.3025 41.6839C8.81582 39.0378 14.7857 38.9293 16.7608 38.6955C17.1197 38.651 17.345 38.6065 17.3867 38.5369C17.3867 38.5369 22.1576 44.7474 27.1065 38.5369C27.151 38.6148 27.4348 38.6649 27.8799 38.715C29.983 38.9376 35.6997 39.0879 37.1852 41.6839C38.6902 44.33 38.9962 46.4001 39.0546 46.9956Z" fill="#860018"/>
<path d="M27.8738 38.715C23.9792 44.1324 19.3335 41.1636 16.7464 38.6955C17.1053 38.651 17.3306 38.6065 17.3723 38.5369C17.3723 38.5369 22.1432 44.7474 27.0921 38.5369C27.145 38.6148 27.4287 38.6649 27.8738 38.715Z" fill="#6B1524"/>
<path d="M14.3853 25.1147C14.3853 25.1147 12.2572 21.5197 11.3781 24.5999C10.4991 27.6801 12.6244 29.1492 14.0181 28.8571C15.4118 28.5649 14.3853 25.1147 14.3853 25.1147Z" fill="#E1A387"/>
<path d="M14.1384 25.7019C14.1384 25.7019 12.6724 23.4259 12.1577 24.3441C11.8445 24.9933 11.7183 25.7168 11.7933 26.4337C11.7933 26.4337 12.0854 25.151 13.0396 25.8772C13.0396 25.8772 12.1216 27.9307 13.9938 27.3436C13.9826 27.3519 14.7532 26.7287 14.1384 25.7019Z" fill="#CE8D75"/>
<path d="M29.6619 25.1147C29.6619 25.1147 31.79 21.5197 32.6691 24.5999C33.5481 27.6801 31.4228 29.1492 30.0291 28.8571C28.6354 28.5649 29.6619 25.1147 29.6619 25.1147Z" fill="#E1A387"/>
<path d="M29.6911 25.9408C29.6911 25.9408 31.1571 23.6648 31.6718 24.583C31.9851 25.2321 32.1122 25.9555 32.039 26.6726C32.039 26.6726 31.7441 25.3899 30.7899 26.1161C30.7899 26.1161 31.7079 28.1696 29.8358 27.5825C29.8358 27.5908 29.068 26.9675 29.6911 25.9408Z" fill="#CE8D75"/>
<path d="M29.7161 30.9834C29.5547 33.6267 26.542 35.5828 24.5724 36.4565C23.444 36.9828 22.1776 37.1367 20.956 36.8961C13.5118 34.7063 13.7232 29.6617 14.057 28.2454C14.3909 26.8292 13.9346 24.0718 14.8081 20.7996C14.9206 20.3761 15.088 19.9692 15.3061 19.5892C16.6386 17.2631 19.4789 16.5146 19.4789 16.5146C24.4 13.3343 27.8439 16.459 28.9789 19.0188C29.0543 19.186 29.1212 19.3568 29.1792 19.5308C30.0388 22.1658 29.883 28.0173 29.7161 30.9834Z" fill="#F2C2AC"/>
<path fill-rule="evenodd" clip-rule="evenodd" d="M27.207 14.3116C27.2266 14.3067 27.2463 14.302 27.266 14.2974C27.4354 14.2558 27.6073 14.2251 27.7806 14.2056C27.9258 14.2071 28.0707 14.2173 28.2146 14.2362C28.3675 14.2599 28.5183 14.2962 28.6652 14.3447C30.8073 15.0654 30.977 18.421 30.6877 21.3426C30.6654 21.5485 30.6432 21.7544 30.6181 21.9547C30.4766 23.0773 30.2769 24.1918 30.02 25.2937C29.9942 25.4089 29.9695 25.5104 29.9484 25.5967C29.9355 25.6499 29.9239 25.6974 29.9143 25.7389C29.8837 25.8669 29.8642 25.9364 29.8642 25.9364L29.8114 25.5858V25.5385C29.6973 24.6621 29.255 23.5296 28.7153 22.3777C28.0849 21.103 27.3995 19.8568 26.6612 18.6424C25.3863 19.0566 23.4647 19.6206 21.0106 20.1647C20.5321 20.2705 20.0369 20.3762 19.5167 20.4792C18.8101 20.6201 18.0683 20.7574 17.2913 20.891C14.2062 21.4113 12.8013 20.507 12.1865 19.3439C12.1373 19.2535 12.0927 19.1607 12.053 19.0657C11.4772 17.6745 11.8917 16.0411 11.8917 16.0411C12.053 16.3834 12.4091 16.4168 12.921 16.2359C13.0157 16.203 13.1086 16.1649 13.1991 16.1218C13.8868 15.8189 14.7927 15.2336 15.8402 14.5567C17.6021 13.4181 19.7648 12.0206 21.9648 11.272C22.4005 11.1187 22.8605 11.0461 23.3223 11.0578C23.541 11.0655 23.7582 11.0963 23.9705 11.1496C24.6602 11.3378 25.2848 11.7123 25.7759 12.232C25.851 12.3099 25.9261 12.3878 25.9985 12.4685C26.4443 12.9844 26.8246 13.5536 27.1307 14.163C27.1565 14.2123 27.182 14.2619 27.207 14.3116Z" fill="#A16929"/>
<path d="M14.3797 16.2941C14.2879 16.5723 13.9902 22.0426 14.274 24.5246L16.8972 17.6436L14.3797 16.2941Z" fill="#A16929"/>
<path d="M26.0049 12.4578C25.3289 13.223 24.6418 13.9742 23.8907 14.6838C21.8126 16.6593 19.4063 18.3733 16.6022 19.1357C15.2113 19.5085 13.5867 19.7423 12.1874 19.3444C12.1382 19.254 12.0936 19.1611 12.0539 19.0661C12.1735 19.1023 12.2931 19.1301 12.4239 19.1579C14.9276 19.6699 17.7094 18.7601 19.8654 17.4885C22.1257 16.0927 24.1275 14.3163 25.7823 12.238C25.8575 12.2992 25.9326 12.3771 26.0049 12.4578Z" fill="#C98643"/>
<path d="M23.978 11.1386C22.7095 13.2283 21.0432 15.0702 19.1126 16.2639C17.5436 17.2322 15.7744 17.5939 14.0079 17.0013C13.5721 16.866 13.1916 16.5938 12.923 16.225C13.0177 16.192 13.1106 16.154 13.2011 16.1109C13.3655 16.2923 13.5652 16.4382 13.7881 16.5394C14.7217 16.957 15.767 17.0548 16.7619 16.8176C18.4533 16.4086 19.9249 15.2761 21.1044 14.0352C21.9556 13.1275 22.7021 12.1269 23.3299 11.0524C23.5483 11.0583 23.7656 11.0872 23.978 11.1386Z" fill="#C98643"/>
<path d="M27.3899 14.6636C26.1673 16.0944 24.8049 17.3994 23.3228 18.5591C22.588 19.1432 21.8158 19.6786 21.0111 20.1618C20.5326 20.2675 20.0374 20.3732 19.5172 20.4762C21.0547 19.7778 22.4739 18.8437 23.7234 17.7076C24.9586 16.6188 26.1003 15.4284 27.1367 14.1489C27.2257 14.3214 27.3092 14.4939 27.3899 14.6636Z" fill="#C98643"/>
<path d="M17.3392 22.5911C16.5046 23.1031 16.0067 24.3579 16.5046 25.1676C16.5269 25.2094 16.6131 25.1927 16.6076 25.1454C16.5681 24.7708 16.6137 24.3921 16.7408 24.0375C16.868 23.6829 17.0735 23.3616 17.342 23.0975C17.7007 22.7704 18.1669 22.5863 18.6522 22.58C19.2086 22.5438 19.4534 23.0419 19.8902 23.2116C19.9792 23.2478 20.0932 23.1893 20.0626 23.0975C19.7177 22.0569 18.1932 22.0736 17.3392 22.5911Z" fill="#390A0A"/>
<path d="M20.2846 24.9287C20.2846 26.2781 19.45 27.3744 18.4319 27.3744C17.4137 27.3744 16.5819 26.2781 16.5819 24.9287C16.5819 23.5792 17.4165 22.4829 18.4319 22.4829C19.4472 22.4829 20.2846 23.5792 20.2846 24.9287Z" fill="white"/>
<path d="M19.8937 25.0008C19.8937 26.0053 19.2622 26.8205 18.4833 26.8205C17.7044 26.8205 17.0729 26.0053 17.0729 25.0008C17.0729 23.9963 17.7044 23.1783 18.4833 23.1783C19.2622 23.1783 19.8937 24.0019 19.8937 25.0008Z" fill="#3D79CA"/>
<path d="M19.6677 25.0287C19.6677 25.8634 19.1502 26.5646 18.5132 26.5646C17.8761 26.5646 17.3587 25.8773 17.3587 25.0287C17.3587 24.18 17.8761 23.4927 18.5132 23.4927C19.1502 23.4927 19.6677 24.1828 19.6677 25.0287Z" fill="#390A0A"/>
<path d="M19.8926 23.7071C19.8926 23.8741 19.5644 24.0076 19.161 24.0076C18.7576 24.0076 18.4322 23.8741 18.4322 23.7071C18.4322 23.5402 18.7604 23.4038 19.161 23.4038C19.5616 23.4038 19.8926 23.5374 19.8926 23.7071Z" fill="white"/>
<path d="M26.7413 22.5911C27.5759 23.1031 28.0738 24.3579 27.5759 25.1676C27.5536 25.2094 27.4674 25.1927 27.4729 25.1454C27.5124 24.7708 27.4669 24.3921 27.3397 24.0375C27.2126 23.6829 27.0071 23.3616 26.7385 23.0975C26.3808 22.7706 25.9156 22.5865 25.4311 22.58C24.8747 22.5438 24.6271 23.0419 24.1904 23.2116C24.1013 23.2478 23.9873 23.1893 24.0179 23.0975C24.3628 22.0569 25.8873 22.0736 26.7413 22.5911Z" fill="#390A0A"/>
<path d="M27.3654 24.9287C27.3654 26.2781 26.5308 27.3744 25.5155 27.3744C24.5001 27.3744 23.6655 26.2781 23.6655 24.9287C23.6655 23.5792 24.5001 22.4829 25.5155 22.4829C26.5308 22.4829 27.3654 23.5792 27.3654 24.9287Z" fill="white"/>
<path d="M26.9724 25.0008C26.9724 26.0053 26.3409 26.8205 25.562 26.8205C24.783 26.8205 24.1516 26.0136 24.1516 25.0008C24.1516 23.988 24.783 23.1783 25.5592 23.1783C26.3353 23.1783 26.9724 24.0019 26.9724 25.0008Z" fill="#3D79CA"/>
<path d="M26.7508 25.0287C26.7508 25.8634 26.2333 26.5646 25.5935 26.5646C24.9537 26.5646 24.439 25.8773 24.439 25.0287C24.439 24.18 24.9564 23.4927 25.5935 23.4927C26.2305 23.4927 26.7508 24.1828 26.7508 25.0287Z" fill="#390A0A"/>
<path d="M26.9726 23.7071C26.9726 23.8741 26.6472 24.0076 26.2438 24.0076C25.8404 24.0076 25.5149 23.8741 25.5149 23.7071C25.5149 23.5402 25.8404 23.4038 26.2438 23.4038C26.6472 23.4038 26.9726 23.5374 26.9726 23.7071Z" fill="white"/>
<path d="M21.9889 23.7484C21.9889 23.7484 21.4326 23.1919 21.3324 25.173C21.2323 27.1541 21.3324 29.2242 21.3324 29.2242C21.3324 29.2242 20.0194 28.4563 20.4561 29.5526C20.6926 30.1424 21.249 30.4457 21.8471 30.6016C22.0643 30.6644 22.295 30.6637 22.5119 30.5996C22.7288 30.5355 22.9228 30.4107 23.0711 30.2398C23.2269 30.0868 24.0392 29.2632 23.7832 29.0072C23.6608 28.882 22.9487 29.1769 22.7679 29.2242C22.7623 29.2242 22.9737 23.3115 21.9889 23.7484Z" fill="#E1A387"/>
<path d="M25.2646 31.7711C25.2646 31.7711 22.6858 36.1924 19.1251 31.938C19.1251 31.938 21.2003 31.2369 21.9598 31.8601L22.238 32.1745C22.238 32.1745 23.0391 31.1868 25.2646 31.7711Z" fill="#CE8D75"/>
<path d="M25.2646 31.7707C25.2646 31.7707 22.6858 36.192 19.1251 31.9376C19.1445 31.9376 22.6246 33.5348 25.2646 31.7707Z" fill="#E1A387"/>
<path d="M20.6305 21.5831C20.6305 22.0505 19.4382 21.787 17.981 21.787C16.5238 21.787 15.3315 22.0505 15.3315 21.5831C15.3315 21.1157 16.5211 20.0943 17.981 20.0943C19.4409 20.0943 20.6305 21.1157 20.6305 21.5831Z" fill="#343434"/>
<path d="M28.2841 21.5831C28.2841 22.0505 27.0945 21.787 25.6346 21.787C24.1747 21.787 22.9851 22.0505 22.9851 21.5831C22.9851 21.1157 24.1747 20.0943 25.6346 20.0943C27.0945 20.0943 28.2841 21.1157 28.2841 21.5831Z" fill="#343434"/>
</g>
</svg>
