<svg width="18" height="17" viewBox="0 0 18 17" fill="none" xmlns="http://www.w3.org/2000/svg">
<path d="M16.8257 15.7097L12.757 11.6411C13.9157 10.2262 14.4861 8.42004 14.3502 6.59631C14.2142 4.77259 13.3823 3.07093 12.0266 1.8435C10.671 0.616063 8.89527 -0.0431916 7.06705 0.00216367C5.23882 0.047519 3.49801 0.794012 2.20487 2.08716C0.911718 3.38031 0.165225 5.12112 0.11987 6.94934C0.0745147 8.77757 0.733769 10.5533 1.9612 11.9089C3.18864 13.2646 4.89029 14.0965 6.71402 14.2325C8.53774 14.3684 10.3439 13.798 11.7588 12.6393L15.8275 16.7045C15.8928 16.7701 15.9704 16.8221 16.0558 16.8577C16.1412 16.8932 16.2328 16.9116 16.3254 16.9118C16.4179 16.9119 16.5096 16.8939 16.5951 16.8586C16.6807 16.8233 16.7584 16.7716 16.824 16.7063C16.8895 16.6409 16.9415 16.5633 16.9771 16.4779C17.0127 16.3925 17.031 16.3009 17.0312 16.2084C17.0314 16.1158 17.0133 16.0242 16.978 15.9386C16.9428 15.8531 16.891 15.7753 16.8257 15.7097ZM7.24158 12.8325C6.11146 12.8321 5.00684 12.4966 4.0674 11.8684C3.12796 11.2403 2.39588 10.3476 1.96375 9.30338C1.53161 8.25915 1.41883 7.11022 1.63965 6.00189C1.86047 4.89355 2.40499 3.87559 3.20434 3.07671C4.00369 2.27783 5.02199 1.73393 6.13045 1.51377C7.23892 1.29361 8.38778 1.40708 9.43175 1.83984C10.4757 2.2726 11.3679 3.0052 11.9956 3.94502C12.6232 4.88484 12.958 5.98966 12.9578 7.11978C12.956 8.63494 12.353 10.0875 11.2813 11.1585C10.2096 12.2296 8.75674 12.8316 7.24158 12.8325Z" fill="#22215B"/>
</svg>
